<?xml version="1.0" encoding="UTF-8"?>
<svg id="Layer_2" data-name="Layer 2" xmlns="http://www.w3.org/2000/svg" viewBox="0 0 655.83 112.9">
  <defs>
    <style>
      .cls-1 {
        fill: #fdd400;
        stroke-width: 0px;
      }
    </style>
  </defs>
  <g id="Layer_1-2" data-name="Layer 1">
    <g>
      <g>
        <path class="cls-1" d="m335.43,70.12h-47.42c-.16,0-.32.06-.45.16l-11.42,9.32s0,.03,0,.03h48.86c.16,0,.32-.06.45-.16l10.31-8.41c.38-.31.16-.94-.33-.94Z"/>
        <path class="cls-1" d="m607.56,103.91l-9.69,7.91c-.41.34-.17,1,.36,1h45.95l11.65-9.51h-46.59c-.61,0-1.21.21-1.68.6Z"/>
        <path class="cls-1" d="m335.84,79.46l10.26-8.37c.4-.33.17-.97-.35-.97h-4.79c-.17,0-.32.06-.45.16l-10.27,8.38c-.4.32-.17.97.34.97h4.8c.17,0,.32-.06.45-.16Z"/>
        <path class="cls-1" d="m597.26,103.43l-10.72,8.75c-.26.21-.11.64.23.64h5.38c.12,0,.24-.04.33-.12l10.31-8.41c.4-.33.17-.98-.35-.98h-4.85c-.12,0-.24.04-.33.12Z"/>
        <path class="cls-1" d="m571.74,103.32c-.88,0-1.28-1.11-.59-1.66l6.67-5.44c.43-.35.92-.63,1.44-.81l30.3-10.72c.52-.19,1.01-.46,1.44-.81l14.82-12.09c.68-.56.29-1.66-.59-1.66h-89.2c-.21,0-.42.07-.59.21l-44.77,36.04c-.17.13-.37.21-.59.21h-9.26c-.88,0-1.28-1.11-.59-1.67l41.14-33.12c.69-.55.3-1.67-.59-1.67h-43.07c-.16,0-.31.04-.45.11l-26.47,14.46c-.69.37-1.5-.21-1.37-.98l2.1-12.5c.1-.57-.34-1.09-.92-1.09h-33.14c-.22,0-.43.07-.59.21l-25.55,20.85c-.23.19-.52.29-.82.29h-8.32c-.44,0-.84-.22-1.08-.58l-3.92-5.93c-.33-.5-.12-1.17.44-1.39l31.52-12.44c.56-.22.4-1.05-.2-1.05h-13.96c-.21,0-.42.04-.61.12l-20.66,8.15c-.41.16-.88.01-1.13-.35l-4.85-7.32c-.23-.35-.63-.56-1.05-.56h-14.38c-.45,0-.88.15-1.23.44l-9.94,8.11c-.39.32-.17.96.34.96h10.19c.31,0,.61.16.78.42l2.88,4.35c.33.5.12,1.17-.44,1.39l-30.19,11.91c-.54.21-.39,1.02.19,1.02h14.18c.12,0,.23-.02.34-.07l19.39-7.65c.41-.16.88-.01,1.13.35l4.48,6.77c.24.37.66.59,1.1.59h20.77,0s.07,0,.07,0h19.97c.22,0,.43-.07.59-.21l22.32-18.21c.67-.55,1.66.03,1.52.88l-2.76,16.45c-.1.57.34,1.09.92,1.09h17.77c.16,0,.31-.04.45-.11l29.36-16.04c1-.55,1.93.84,1.04,1.55l-33.59,27.04c-.69.55-.3,1.72.59,1.72l16.61.02h32.69l.09-.07h16.98c.21,0,.42-.07.59-.21l40.72-32.78c.17-.13.37-.21.59-.21h31.05c.88,0,1.28,1.11.59,1.66l-3.13,2.56c-.45.37-.96.65-1.5.85l-30.26,10.71c-.54.19-1.03.47-1.47.83l-8.68,7.09h-.03l-9.62,7.84c-.68.56-.29,1.66.59,1.66h51.29c.22,0,.43-.07.59-.21l10.25-8.36c.38-.31.16-.93-.33-.93h-20.36Z"/>
      </g>
      <path class="cls-1" d="m520.27,48.61h-22.22c-.24,0-.4-.24-.31-.46l11.13-26.82c.38-.92-.29-1.94-1.29-1.94h-20.18c-1.23-.01-2.43.33-3.48.98l-45.27,27.96c-.3.19-.65.29-1.01.29h-7.03c-1,0-1.52-1.2-.82-1.93l24.26-25.36c.69-.73.18-1.93-.82-1.93h-19.03c-.22,0-.43.06-.62.18l-30.29,19.58c-.64.41-1.49.1-1.71-.63l-5.58-18.33c-.15-.48-.59-.81-1.09-.81h-9.95c-.31,0-.61.13-.82.35l-26.98,28.2c-.41.43-.97.67-1.56.67h-22.26c-3.37,0-4.57-4.46-1.66-6.15l36.53-21.27c.85-.5.5-1.8-.49-1.8h-52.45c-.56,0-1.1.24-1.48.66l-2.94,3.23c-.31.34-.07.88.39.88h18.6c2.56,0,3.48,3.39,1.26,4.68l-31.75,18.48c-1.41.82-3.01,1.26-4.64,1.28h-6.58c-3.33,0-5.07-3.95-2.83-6.41l19.67-21.6c.42-.46.09-1.21-.53-1.21h-16.27c-.53,0-1.04.22-1.39.62l-25.64,28.14c-.26.29-.64.46-1.03.46h-16.33c-2.03,0-3.66-1.5-3.66-1.5-3.92-3.92.97-4.81,2.6-5.16,7.97-1.71,12.89-4.46,18.06-9.63,7.15-7.15,3.33-12.93-3.28-12.93h-52.58c-.28,0-.43.33-.24.54l3.55,3.9c.19.21.46.33.74.33h33.26c2.65,0,4.04,3.14,2.25,5.1-4.68,5.14-11.31,8.07-18.27,8.07h-3.79c-.34,0-.51-.4-.29-.65l6.37-6.99c.22-.24.05-.63-.28-.63h-17.48c-.26,0-.51.11-.68.3l-16.76,18.4c-.49.54-1.19.85-1.91.85h-10.22c-.21-.03-.35-.24-.27-.45l11.13-26.82c.38-.92-.29-1.94-1.29-1.94h-20.18c-1.23-.01-2.43.33-3.48.98l-45.06,27.83-18-16.85c-.84-.83-.55-2.24.54-2.69l53.86-22.29c2.92-1.19,5.64-2.81,8.08-4.8l1.15-.94c.31-.25.03-.74-.34-.62l-73.6,25.14c-.91.31-1.67-.75-1.08-1.51l8.98-11.55c.16-.21.01-.51-.25-.51h-16.79c-1.03,0-2.01.44-2.7,1.2L.11,103.09c-.33.36.11.89.53.65l5.49-3.26c.49-.29.97-.61,1.43-.96l52.26-39.53s0,0,0,0l21.75-21.55c.48-.49,1.26-.51,1.76-.04l12.77,12.68c.47.44.51,1.18.07,1.66l-2.77,1.98c-.46.51-.07,1.32.62,1.27l31.33-2.6,40.05-24.74c1.86-1.15,4.09.76,3.25,2.77l-7.05,16.99c-.05.12-.17.2-.31.2h-12.85c-.09.04-.16.07-.24.11l-3.74,4.1c-.19.21-.04.55.24.55h49.6s.03,0,.05-.01h11.89c.43,0,.84-.18,1.14-.5l9.21-10.11c.25-.28.67-.31.96-.07l12.64,10.28c.32.26.72.4,1.14.4h47.72,0s25.01.01,25.01.01h57.08l.04-.04h8.56c.93,0,1.82-.38,2.46-1.05l12.68-13.25c.6-.63,1.66-.38,1.92.46l1.76,5.78c.15.48.59.81,1.09.81h13.91c.22,0,.43-.06.62-.18l10.68-6.91c1.14-.73,2.38.77,1.44,1.75l-10.96,11.46c-.41.43-.11,1.14.49,1.15l25.8.03s.01,0,.02,0h10.46c.06-.02.11-.03.17-.05l39.97-24.69c1.86-1.15,4.09.76,3.26,2.77l-7.05,16.99c-.05.12-.17.2-.31.2h-12.85c-.09.04-.16.07-.24.11l-3.74,4.1c-.19.21-.04.55.24.55h49.6s.09-.02.14-.03l9.11-4.1c.33-.15.22-.63-.14-.63Z"/>
    </g>
  </g>
</svg>